name Walk7.mot
datacolumns 19
datarows 25
range 2.33500000 2.35900000
endheader

                time	   L_ground_force_vx	   L_ground_force_vy	   L_ground_force_vz	   L_ground_force_px	   L_ground_force_py	   L_ground_force_pz	   R_ground_force_vx	   R_ground_force_vy	   R_ground_force_vz	   R_ground_force_px	   R_ground_force_py	   R_ground_force_pz	   L_ground_torque_x	   L_ground_torque_y	   L_ground_torque_z	   R_ground_torque_x	   R_ground_torque_y	   R_ground_torque_z	
          2.33500000	          0.00000000	          0.00000000	          0.00000000	          0.00000000	          0.00000000	          0.00000000	          0.00000000	          0.00000000	          0.00000000	          0.00000000	          0.00000000	          0.00000000	          0.00000000	          0.00000000	          0.00000000	          0.00000000	          0.00000000	          0.00000000	
          2.33600000	          0.00000000	          0.00000000	          0.00000000	          0.00000000	          0.00000000	          0.00000000	          0.00000000	          0.00000000	          0.00000000	          0.00000000	          0.00000000	          0.00000000	          0.00000000	          0.00000000	          0.00000000	          0.00000000	          0.00000000	          0.00000000	
          2.33700000	          0.00000000	          0.00000000	          0.00000000	          0.00000000	          0.00000000	          0.00000000	          0.00000000	          0.00000000	          0.00000000	          0.00000000	          0.00000000	          0.00000000	          0.00000000	          0.00000000	          0.00000000	          0.00000000	          0.00000000	          0.00000000	
          2.33800000	          0.00000000	          0.00000000	          0.00000000	          0.00000000	          0.00000000	          0.00000000	          0.00000000	          0.00000000	          0.00000000	          0.00000000	          0.00000000	          0.00000000	          0.00000000	          0.00000000	          0.00000000	          0.00000000	          0.00000000	          0.00000000	
          2.33900000	          0.00000000	          0.00000000	          0.00000000	          0.00000000	          0.00000000	          0.00000000	          0.00000000	          0.00000000	          0.00000000	          0.00000000	          0.00000000	          0.00000000	          0.00000000	          0.00000000	          0.00000000	          0.00000000	          0.00000000	          0.00000000	
          2.34000000	          0.00000000	          0.00000000	          0.00000000	          0.00000000	          0.00000000	          0.00000000	          0.00000000	          0.00000000	          0.00000000	          0.00000000	          0.00000000	          0.00000000	          0.00000000	          0.00000000	          0.00000000	          0.00000000	          0.00000000	          0.00000000	
          2.34100000	         -2.73790570	         21.08116580	          2.64197680	         -0.32978297	          0.00000000	         -0.00769595	          0.00000000	          0.00000000	          0.00000000	          0.00000000	          0.00000000	          0.00000000	          0.00000000	         -0.04477314	          0.00000000	          0.00000000	          0.00000000	          0.00000000	
          2.34200000	         -3.77038547	         39.87205098	          4.37199094	         -0.32784152	          0.00000000	         -0.00821034	          0.00000000	          0.00000000	          0.00000000	          0.00000000	          0.00000000	          0.00000000	          0.00000000	         -0.01771105	          0.00000000	          0.00000000	          0.00000000	          0.00000000	
          2.34300000	         -4.50994858	         65.14624664	          6.47660201	         -0.32641440	          0.00000000	         -0.00813098	          0.00000000	          0.00000000	          0.00000000	          0.00000000	          0.00000000	          0.00000000	          0.00000000	          0.03908295	          0.00000000	          0.00000000	          0.00000000	          0.00000000	
          2.34400000	         -4.72975698	         96.57937298	          8.88851569	         -0.32529945	          0.00000000	         -0.00769760	          0.00000000	          0.00000000	          0.00000000	          0.00000000	          0.00000000	          0.00000000	          0.00000000	          0.11535058	          0.00000000	          0.00000000	          0.00000000	          0.00000000	
          2.34500000	         -4.28195015	        132.48373185	         11.41630325	         -0.32443635	          0.00000000	         -0.00717368	          0.00000000	          0.00000000	          0.00000000	          0.00000000	          0.00000000	          0.00000000	          0.00000000	          0.19278684	          0.00000000	          0.00000000	          0.00000000	          0.00000000	
          2.34600000	         -3.16802832	        169.65535499	         13.72970510	         -0.32377743	          0.00000000	         -0.00673442	          0.00000000	          0.00000000	          0.00000000	          0.00000000	          0.00000000	          0.00000000	          0.00000000	          0.25355828	          0.00000000	          0.00000000	          0.00000000	          0.00000000	
          2.34700000	         -1.57825557	        204.18974664	         15.46367123	         -0.32327590	          0.00000000	         -0.00641048	          0.00000000	          0.00000000	          0.00000000	          0.00000000	          0.00000000	          0.00000000	          0.00000000	          0.28318074	          0.00000000	          0.00000000	          0.00000000	          0.00000000	
          2.34800000	          0.15624542	        232.85224998	         16.34175074	         -0.32290336	          0.00000000	         -0.00612895	          0.00000000	          0.00000000	          0.00000000	          0.00000000	          0.00000000	          0.00000000	          0.00000000	          0.27426469	          0.00000000	          0.00000000	          0.00000000	          0.00000000	
          2.34900000	          1.66592893	        254.09540639	         16.23418809	         -0.32266228	          0.00000000	         -0.00580259	          0.00000000	          0.00000000	          0.00000000	          0.00000000	          0.00000000	          0.00000000	          0.00000000	          0.23146943	          0.00000000	          0.00000000	          0.00000000	          0.00000000	
          2.35000000	          2.64851290	        268.14872051	         15.15533793	         -0.32256662	          0.00000000	         -0.00541249	          0.00000000	          0.00000000	          0.00000000	          0.00000000	          0.00000000	          0.00000000	          0.00000000	          0.16995899	          0.00000000	          0.00000000	          0.00000000	          0.00000000	
          2.35100000	          2.93584742	        276.41445998	         13.23741476	         -0.32259530	          0.00000000	         -0.00501949	          0.00000000	          0.00000000	          0.00000000	          0.00000000	          0.00000000	          0.00000000	          0.00000000	          0.10789498	          0.00000000	          0.00000000	          0.00000000	          0.00000000	
          2.35200000	          2.49911033	        280.76705109	         10.69067644	         -0.32265492	          0.00000000	         -0.00469207	          0.00000000	          0.00000000	          0.00000000	          0.00000000	          0.00000000	          0.00000000	          0.00000000	          0.05903647	          0.00000000	          0.00000000	          0.00000000	          0.00000000	
          2.35300000	          1.40974039	        283.08906507	          7.75176377	         -0.32260856	          0.00000000	         -0.00443262	          0.00000000	          0.00000000	          0.00000000	          0.00000000	          0.00000000	          0.00000000	          0.00000000	          0.03052332	          0.00000000	          0.00000000	          0.00000000	          0.00000000	
          2.35400000	         -0.22085659	        285.00947155	          4.63969779	         -0.32236149	          0.00000000	         -0.00419127	          0.00000000	          0.00000000	          0.00000000	          0.00000000	          0.00000000	          0.00000000	          0.00000000	          0.02565424	          0.00000000	          0.00000000	          0.00000000	          0.00000000	
          2.35500000	         -2.30290988	        287.71213262	          1.53101675	         -0.32191153	          0.00000000	         -0.00392046	          0.00000000	          0.00000000	          0.00000000	          0.00000000	          0.00000000	          0.00000000	          0.00000000	          0.04473588	          0.00000000	          0.00000000	          0.00000000	          0.00000000	
          2.35600000	         -4.80234142	        291.83607645	         -1.44515525	         -0.32132099	          0.00000000	         -0.00360389	          0.00000000	          0.00000000	          0.00000000	          0.00000000	          0.00000000	          0.00000000	          0.00000000	          0.08235755	          0.00000000	          0.00000000	          0.00000000	          0.00000000	
          2.35700000	         -7.73698699	        297.55339492	         -4.19275739	         -0.32065632	          0.00000000	         -0.00327888	          0.00000000	          0.00000000	          0.00000000	          0.00000000	          0.00000000	          0.00000000	          0.00000000	          0.12633036	          0.00000000	          0.00000000	          0.00000000	          0.00000000	
          2.35800000	        -11.14857798	        304.74179653	         -6.63650632	         -0.31995880	          0.00000000	         -0.00301664	          0.00000000	          0.00000000	          0.00000000	          0.00000000	          0.00000000	          0.00000000	          0.00000000	          0.16110000	          0.00000000	          0.00000000	          0.00000000	          0.00000000	
          2.35900000	        -15.07066311	        313.12781600	         -8.72566375	         -0.31925606	          0.00000000	         -0.00286801	          0.00000000	          0.00000000	          0.00000000	          0.00000000	          0.00000000	          0.00000000	          0.00000000	          0.17365222	          0.00000000	          0.00000000	          0.00000000	          0.00000000	
